PathFileType	4	(X/Y/Z)	C:\Users\Basilio\Documents\Thesis Gigler\squatting_fais\c3dfiles\073\SJ_pre1\markers_experimental.trc
DataRate	CameraRate	NumFrames	NumMarkers	Units	OrigDataRate	OrigDataStartFrame	OrigNumFrames
200.000000	200.000000	4	61	mm	200.000000	691	1383
Frame#	Time	FHD			LBHD			RBHD			C7			T10			CLAV			LSHO			LUUPA			LMUPA			LDUPA			LLEP			LMEP			LRAD			LUL			LRFIN			RSHO			RUPA1			RMUPA			RDUPA			RLEP			RMEP			RRAD			RUL			RUFIN			LASI			RASI			USACR			LSACR			RSACR			LTHI1			LTHI2			LTHI3			LTHI4			LLFC			LMFC			LTIB1			LTIB2			LTIB3			LTIB4			LLMAL			LMMAL			LHEE			LMT1			LMT2			LMT5			RTHI			RTHI2			RTHI3			RTHI4			RLFC			RMFC			RTIB1			RTIB2			RTIB3			RTIB4			RLMAL			RMMAL			RHEE			RMT1			RMT2			RMT5			
		X1	Y1	Z1	X2	Y2	Z2	X3	Y3	Z3	X4	Y4	Z4	X5	Y5	Z5	X6	Y6	Z6	X7	Y7	Z7	X8	Y8	Z8	X9	Y9	Z9	X10	Y10	Z10	X11	Y11	Z11	X12	Y12	Z12	X13	Y13	Z13	X14	Y14	Z14	X15	Y15	Z15	X16	Y16	Z16	X17	Y17	Z17	X18	Y18	Z18	X19	Y19	Z19	X20	Y20	Z20	X21	Y21	Z21	X22	Y22	Z22	X23	Y23	Z23	X24	Y24	Z24	X25	Y25	Z25	X26	Y26	Z26	X27	Y27	Z27	X28	Y28	Z28	X29	Y29	Z29	X30	Y30	Z30	X31	Y31	Z31	X32	Y32	Z32	X33	Y33	Z33	X34	Y34	Z34	X35	Y35	Z35	X36	Y36	Z36	X37	Y37	Z37	X38	Y38	Z38	X39	Y39	Z39	X40	Y40	Z40	X41	Y41	Z41	X42	Y42	Z42	X43	Y43	Z43	X44	Y44	Z44	X45	Y45	Z45	X46	Y46	Z46	X47	Y47	Z47	X48	Y48	Z48	X49	Y49	Z49	X50	Y50	Z50	X51	Y51	Z51	X52	Y52	Z52	X53	Y53	Z53	X54	Y54	Z54	X55	Y55	Z55	X56	Y56	Z56	X57	Y57	Z57	X58	Y58	Z58	X59	Y59	Z59	X60	Y60	Z60	X61	Y61	Z61	

692	3.455	70.35090637207033	1033.594604492188	-955.670593261719	-66.4900360107422	1014.752868652344	-979.2528076171877	-91.83477783203126	1004.629272460938	-846.1894531250002	-120.0157165527344	962.5737304687502	-911.9161376953127	-415.559539794922	824.6834716796877	-906.6054687500002	-91.2008514404297	809.8714599609377	-907.8750000000002	-81.15486907958986	837.5797119140627	-1074.184448242188	-163.4195556640625	838.9736938476565	-1203.018798828125	-191.3987121582032	798.0894775390627	-1211.087280273438	-205.4990386962891	833.232116699219	-1258.68408203125	-292.3885192871094	809.4436035156252	-1322.92041015625	-342.6604919433594	877.4169921875002	-1309.239868164063	-466.5233764648439	704.5045776367189	-1147.175048828125	-443.2748107910157	642.7802124023439	-1182.636962890625	-445.4716796875001	693.2545776367189	-1088.4169921875	-91.67895507812501	836.347839355469	-744.3020629882814	-181.3535308837891	868.2635498046877	-604.9984130859376	-209.3314819335938	830.0718994140627	-590.2467651367189	-228.5292663574219	874.3311767578127	-553.7690429687501	-304.3869323730469	851.6685791015627	-496.9054565429689	-364.1072998046876	910.6050415039065	-542.7989501953126	-483.4370422363282	716.4689331054689	-650.1574096679689	-447.5165100097657	659.8685913085939	-613.6242065429689	-446.499725341797	697.2618408203126	-710.6040649414064	-428.8970642089845	634.7761230468751	-1031.14990234375	-434.3866271972657	604.7577514648439	-790.881774902344	-532.4567871093751	770.332946777344	-891.885192871094	-563.5192871093751	758.6195068359376	-918.2475585937502	-562.5144653320314	756.5207519531251	-862.2144775390627	-352.4183044433594	536.8145141601564	-1143.26708984375	-266.4290771484376	537.4931030273439	-1149.889526367188	-246.0950469970704	571.4603271484376	-1119.850341796875	-231.9109649658204	486.1053466796876	-1150.25830078125	-194.0197906494141	449.459930419922	-1154.9423828125	-174.9797668457032	434.7856750488282	-1031.052612304688	-204.6623535156251	260.1548461914063	-1118.683837890625	-280.4589233398438	257.2824707031251	-1167.0732421875	-249.0250091552735	232.6556396484376	-1147.859008789063	-284.2846679687501	162.843978881836	-1115.542602539063	-396.8166503906251	86.95214080810548	-1142.7890625	-373.4782409667969	102.7467193603516	-1055.525268554688	-458.1528625488282	52.04277420043947	-1096.759399414063	-228.1091766357422	55.0126190185547	-1092.816650390625	-233.2871093750001	55.97786331176759	-1131.139282226563	-274.7920227050782	36.75910186767579	-1181.879028320313	-422.261932373047	543.5671386718751	-669.4729614257814	-356.6989135742188	546.3710327148439	-663.6322631835939	-339.9762878417969	574.3125000000001	-672.2407226562501	-302.6174926757813	483.6981811523439	-658.8213500976564	-181.7083282470703	418.7195739746095	-659.3754272460939	-164.2588653564453	402.6617126464845	-779.5074462890627	-204.4074401855469	263.8295593261719	-740.9788818359376	-271.6154174804688	211.6384582519532	-672.4777832031251	-252.6489410400391	197.4319000244141	-713.7952880859376	-293.4433898925782	168.8500366210938	-745.5767822265626	-401.7557678222657	83.07727050781251	-687.4281616210939	-384.7666931152345	97.6286544799805	-776.196228027344	-475.4293823242189	47.38097000122071	-744.0678710937501	-245.7369232177735	55.05817031860353	-719.5170898437501	-252.5222625732422	56.00291442871095	-679.2040405273439	-299.8688964843751	36.4924659729004	-635.9108276367189	
693	3.46	70.4152069091797	1033.438110351563	-955.7551269531252	-66.45455169677736	1014.641967773438	-979.2924804687502	-91.76902008056642	1004.447692871094	-846.1230468750002	-119.9957275390625	962.4517822265627	-911.9403076171877	-415.5620727539064	824.7191162109377	-906.6262207031252	-91.21715545654298	809.7312011718752	-907.8889770507815	-81.09226989746095	837.4734497070315	-1074.300048828125	-163.4208221435547	838.8997192382815	-1203.094116210938	-191.4998931884766	797.9838867187502	-1211.166137695313	-205.4807586669922	833.1705322265627	-1258.718627929688	-292.4344177246094	809.4577636718752	-1322.967529296875	-342.6310119628907	877.4214477539065	-1309.257446289063	-466.6065979003907	704.5492553710939	-1147.20654296875	-443.3220520019532	642.7450561523439	-1182.719604492188	-445.5045471191407	693.2891235351564	-1088.455688476563	-91.65856933593751	836.195739746094	-744.3620605468751	-181.377197265625	868.1362304687502	-605.0346679687501	-209.3217468261719	829.9805908203127	-590.2592163085939	-228.5408630371094	874.1968994140627	-553.8229980468751	-304.3682861328126	851.6225585937502	-496.9740295410157	-364.0665893554688	910.5825805664065	-542.8556518554689	-483.4935302734376	716.5330200195314	-650.2449951171876	-447.6581420898439	659.9378662109376	-613.7185668945314	-446.628143310547	697.3166503906251	-710.6641235351564	-428.8726501464845	634.7869873046876	-1031.083129882813	-434.4908142089845	604.8644409179689	-790.8316040039065	-532.5265502929689	770.4085083007815	-891.941345214844	-563.5529174804689	758.6907348632814	-918.3049926757815	-562.5665283203126	756.6211547851564	-862.2969360351565	-352.5593261718751	536.8468017578126	-1143.321533203125	-266.5528869628907	537.5358886718751	-1149.941650390625	-246.2024230957032	571.5285034179689	-1119.897338867188	-232.0597534179688	486.1381835937501	-1150.282348632813	-194.1528778076172	449.5420837402345	-1154.95849609375	-175.0702819824219	434.8497619628907	-1031.024780273438	-204.6887817382813	260.2469177246094	-1118.717163085938	-280.4850158691407	257.3109436035157	-1167.08154296875	-249.0394134521485	232.7552032470704	-1147.88037109375	-284.3078613281251	162.8408813476563	-1115.506103515625	-396.8468627929689	86.97489166259767	-1142.798583984375	-373.4827270507813	102.7426528930664	-1055.53857421875	-458.1574096679689	52.04415512084962	-1096.76220703125	-228.1116943359376	55.00594711303712	-1092.813232421875	-233.3038482666016	55.9672317504883	-1131.146240234375	-274.7567749023438	36.77808380126954	-1181.869262695313	-422.3770751953126	543.6795654296876	-669.5548706054689	-356.8078918457032	546.4265136718751	-663.6835937500001	-340.1116333007813	574.3913574218751	-672.3537597656251	-302.7177734375001	483.758026123047	-658.9077758789064	-181.8743743896485	418.8121948242189	-659.5000000000001	-164.3245239257813	402.7500305175782	-779.573181152344	-204.3964538574219	263.9147338867188	-740.9805908203126	-271.6338500976563	211.6873016357422	-672.5116577148439	-252.6117553710938	197.4210052490235	-713.8481445312501	-291.8646850585938	168.4132537841797	-745.5458374023439	-401.7397460937501	83.09738159179689	-687.3986206054689	-384.8314514160157	97.64560699462893	-776.201599121094	-475.4307250976564	47.39662551879884	-744.0608520507814	-245.7342071533204	55.06675338745119	-719.5140991210939	-252.575424194336	56.01693344116212	-679.2070922851564	-299.8623046875001	36.48472213745118	-635.9124755859376	
694	3.465	70.57931518554689	1033.234008789063	-955.6977539062502	-66.4252166748047	1014.471923828125	-979.3034667968752	-91.73388671875001	1004.305297851563	-846.284606933594	-119.9289169311524	962.3167724609377	-911.9688720703127	-415.5774230957032	824.711608886719	-906.7335205078127	-91.18502044677736	809.5764770507815	-907.9060058593752	-81.1266555786133	837.2395019531252	-1074.302978515625	-163.3767395019532	838.7939453125002	-1203.124877929688	-191.4850463867188	797.8585205078127	-1211.237182617188	-205.4863891601563	833.090759277344	-1258.816040039063	-292.4364624023438	809.4528808593752	-1323.019897460938	-342.5899658203126	877.4912109375002	-1309.310424804688	-466.7047119140626	704.6695556640626	-1147.245239257813	-443.456024169922	642.8179321289064	-1182.7685546875	-445.3709716796876	693.3354492187501	-1088.491333007813	-91.70668029785158	836.0512695312502	-744.4199218750001	-181.3588562011719	868.0485839843752	-605.0363159179689	-209.3433990478516	829.8210449218752	-590.3077392578126	-228.5033111572266	874.1099853515627	-553.8510131835939	-304.3781433105469	851.562194824219	-497.0125732421876	-364.0206298828126	910.5742797851565	-542.8743286132814	-483.6190185546876	716.6005859375001	-650.2918701171876	-447.8082275390626	659.9511718750001	-613.7309570312501	-446.7381286621095	697.3513793945314	-710.7147216796876	-428.7698059082032	634.8740234375001	-1031.038940429688	-434.485076904297	605.0292968750001	-790.8055419921877	-532.5665283203126	770.4998779296877	-892.0312500000002	-563.5823974609376	758.7461547851564	-918.3820800781252	-562.6340942382814	756.6909179687501	-862.3511352539065	-352.6863403320313	536.9017333984376	-1143.391967773438	-266.6448669433594	537.5890502929689	-1149.938110351563	-246.3162078857422	571.5873413085939	-1119.935302734375	-232.1463012695313	486.1808471679689	-1150.321899414063	-194.2434387207032	449.5862121582032	-1154.995361328125	-175.1593933105469	434.9233398437501	-1031.060791015625	-204.7271728515626	260.2566833496094	-1118.750244140625	-280.5246276855469	257.3040161132813	-1167.13037109375	-249.0854492187501	232.7729797363282	-1147.906982421875	-284.4264221191407	162.9298706054688	-1115.640502929688	-396.8128967285157	86.9238739013672	-1142.780517578125	-373.4745178222657	102.7188796997071	-1055.596069335938	-458.1826782226564	52.04485321044923	-1096.782348632813	-228.1214752197266	55.00428771972658	-1092.811767578125	-233.3121337890626	55.98777770996095	-1131.15185546875	-274.7297363281251	36.73899078369141	-1181.838500976563	-422.499725341797	543.7662353515626	-669.6505737304689	-356.8987426757813	546.5324707031251	-663.6825561523439	-340.2450561523438	574.4992675781251	-672.4437255859376	-302.8455505371094	483.901824951172	-659.0055541992189	-181.9754638671875	418.8794860839845	-659.6343383789064	-164.486572265625	402.7574768066407	-779.6148071289065	-204.4847564697266	263.9597778320313	-741.0646362304689	-271.6884765625001	211.7349090576172	-672.5022583007814	-252.6295166015626	197.5396575927735	-713.8432006835939	-291.8467102050782	168.4809265136719	-745.5800170898439	-401.774139404297	83.11248016357423	-687.4042968750001	-384.7801513671876	97.57583618164065	-776.2061157226565	-475.4661560058595	47.38143920898438	-744.0249023437501	-245.7698211669922	55.1348114013672	-719.4331665039064	-252.5709228515626	55.93575286865236	-679.2254638671876	-299.8797912597657	36.48604583740235	-635.9407348632814	
695	3.47	70.81804656982423	1033.043823242188	-955.6804199218752	-66.3755340576172	1014.30908203125	-979.3419189453127	-91.62316131591798	1004.151733398438	-846.1942138671877	-119.8755569458008	962.1896972656252	-911.9804687500002	-415.5916137695314	824.7443847656252	-906.7734375000002	-91.24135589599611	809.3972167968752	-907.9930419921877	-81.03073883056642	837.1004028320315	-1074.34716796875	-163.3553314208985	838.7022705078127	-1203.150512695313	-191.4677886962891	797.8085937500002	-1211.30517578125	-205.5041046142579	833.0273437500002	-1258.902587890625	-292.4764709472657	809.4415283203127	-1323.0595703125	-342.6044921875001	877.5035400390627	-1309.327270507813	-466.7851562500001	704.7611083984376	-1147.2998046875	-443.4926757812501	642.8156127929689	-1182.83203125	-445.5703430175782	693.3913574218751	-1088.583374023438	-91.64214324951173	835.866882324219	-744.4362182617189	-181.3410949707032	867.909362792969	-605.1009521484376	-209.3184051513672	829.709899902344	-590.3444213867189	-228.4831237792969	874.0281982421877	-553.8920288085939	-304.3874511718751	851.5261840820315	-497.0940856933595	-364.0146484375001	910.5900878906252	-542.9506225585939	-483.6820068359376	716.6829833984376	-650.3776245117189	-447.9420471191407	660.0310058593751	-613.7626342773439	-446.8355102539064	697.4361572265626	-710.7652587890626	-428.8811645507814	634.8601684570314	-1031.1015625	-434.638153076172	604.9645385742189	-790.9010009765627	-532.6117553710939	770.5381469726565	-892.1049804687502	-563.6050415039064	758.8193969726564	-918.4123535156252	-562.6727294921876	756.7493896484376	-862.4250488281252	-352.7655334472657	536.9371337890626	-1143.41552734375	-266.6934814453126	537.6135864257814	-1149.951049804688	-246.4341888427735	571.6262207031251	-1119.9677734375	-232.2875518798829	486.2501831054689	-1150.355102539063	-194.3787384033204	449.5992431640626	-1154.996459960938	-175.2725677490235	434.978729248047	-1031.150024414063	-204.8085327148438	260.3072204589844	-1118.791259765625	-280.5698242187501	257.3091430664063	-1167.119750976563	-249.0923461914063	232.8700256347657	-1147.901245117188	-284.4505004882813	162.95263671875	-1115.681762695313	-396.8252258300782	86.93344879150392	-1142.822631835938	-373.4811401367188	102.7547073364258	-1055.583374023438	-458.1848144531251	52.04825973510744	-1096.782104492188	-228.118148803711	55.03531646728517	-1092.811767578125	-233.3370666503907	55.98609542846681	-1131.143920898438	-274.7507629394532	36.72143936157227	-1181.858520507813	-422.6024475097657	543.8637695312501	-669.6721191406251	-357.0235290527344	546.5854492187501	-663.7119750976564	-340.3628540039063	574.5603637695314	-672.5787353515626	-302.9422912597657	483.9673461914064	-659.0928344726564	-182.0724487304688	418.9577636718751	-659.7324829101564	-164.5699920654297	402.8742980957032	-779.708679199219	-204.4454956054688	264.0149230957032	-741.1708984375001	-271.7362060546876	211.7989044189454	-672.5365600585939	-252.6477661132813	197.5901336669922	-713.8262329101564	-293.6040649414063	168.8815460205078	-745.6384277343751	-401.7874755859376	83.10105895996095	-687.3971557617189	-384.8619079589845	97.59895324707034	-776.2009277343752	-475.456512451172	47.35669326782227	-744.0031127929689	-245.7537536621094	55.06820297241212	-719.4916381835939	-252.4523620605469	55.92599487304689	-679.2893066406251	-299.8772888183594	36.4809684753418	-635.9394531250001	
